<?xml version="1.0" encoding="UTF-8"?>
<svg width="24px" height="24px" viewBox="0 0 24 24" stroke-width="1.5" fill="none" xmlns="http://www.w3.org/2000/svg" color="#2563eb">
    <path d="M12 7.5C12 5.01472 9.98528 3 7.5 3C5.01472 3 3 5.01472 3 7.5C3 9.98528 5.01472 12 7.5 12C9.98528 12 12 9.98528 12 7.5Z" stroke="#2563eb" stroke-width="2" stroke-linecap="round" stroke-linejoin="round"></path>
    <path d="M12 7.5H21M21 7.5L18 4.5M21 7.5L18 10.5" stroke="#2563eb" stroke-width="2" stroke-linecap="round" stroke-linejoin="round"></path>
    <path d="M12 16.5C12 18.9853 14.0147 21 16.5 21C18.9853 21 21 18.9853 21 16.5C21 14.0147 18.9853 12 16.5 12C14.0147 12 12 14.0147 12 16.5Z" stroke="#2563eb" stroke-width="2" stroke-linecap="round" stroke-linejoin="round"></path>
    <path d="M12 16.5H3M3 16.5L6 13.5M3 16.5L6 19.5" stroke="#2563eb" stroke-width="2" stroke-linecap="round" stroke-linejoin="round"></path>
</svg>
